<svg width="39" height="38" viewBox="0 0 39 38" fill="none" xmlns="http://www.w3.org/2000/svg">
<path d="M37.9403 19C37.9403 28.9182 29.6941 37 19.4702 37C9.24619 37 1 28.9182 1 19C1 9.08177 9.24619 1 19.4702 1C29.6941 1 37.9403 9.08177 37.9403 19Z" stroke="#1C9AB6" stroke-width="2"/>
<path d="M19.1385 19.0281C22.7224 19.0281 25.6698 16.1867 25.6698 12.6304C25.6698 9.07413 22.7224 6.23267 19.1385 6.23267C15.5545 6.23267 12.6072 9.07413 12.6072 12.6304C12.6072 16.1867 15.5545 19.0281 19.1385 19.0281Z" fill="#1C9AB6" stroke="#1C9AB6" stroke-width="2"/>
<mask id="path-3-outside-1_11_216" maskUnits="userSpaceOnUse" x="7.91949" y="19.6268" width="24" height="12" fill="black">
<rect fill="white" x="7.91949" y="19.6268" width="24" height="12"/>
<path d="M29.0947 29.5436C29.0947 27.4439 28.0845 25.4303 26.2865 23.9456C24.4885 22.4609 22.0499 21.6268 19.5071 21.6268C16.9643 21.6268 14.5257 22.4609 12.7276 23.9456C10.9296 25.4303 9.9195 27.4439 9.91949 29.5436L19.5071 29.5436H29.0947Z"/>
</mask>
<path d="M29.0947 29.5436C29.0947 27.4439 28.0845 25.4303 26.2865 23.9456C24.4885 22.4609 22.0499 21.6268 19.5071 21.6268C16.9643 21.6268 14.5257 22.4609 12.7276 23.9456C10.9296 25.4303 9.9195 27.4439 9.91949 29.5436L19.5071 29.5436H29.0947Z" fill="#1C9AB6"/>
<path d="M29.0947 29.5436C29.0947 27.4439 28.0845 25.4303 26.2865 23.9456C24.4885 22.4609 22.0499 21.6268 19.5071 21.6268C16.9643 21.6268 14.5257 22.4609 12.7276 23.9456C10.9296 25.4303 9.9195 27.4439 9.91949 29.5436L19.5071 29.5436H29.0947Z" stroke="#1C9AB6" stroke-width="4" mask="url(#path-3-outside-1_11_216)"/>
</svg>
